<svg fill="none" height="65" viewBox="0 0 65 65" width="65" xmlns="http://www.w3.org/2000/svg"><path clip-rule="evenodd" d="m25.6206 10 19.4542 11.2827v7.7179l-6.2624 3.4774 6.2624 3.6532v7.5839l-6.623 3.8257-6.2084-3.6392v7.1368l-6.6217 3.9616-6.6217-3.9616v-37.1459zm5.9515 33.5081-5.6147-3.2912v6.7432l5.6147 3.301zm-.3226 7.3424-5.2921-3.1114v6.2775zm-5.9634 3.1661v-6.2775l-5.2922 3.1114zm-5.6148-3.7555v-20.8459l5.6148 3.182v14.3629zm6.2861-17.2724v6.0687l5.2767-2.9623zm5.9464 3.5006-5.6073 3.1479 11.8209 6.929v-6.419zm6.8849 3.6597v5.7564l5.0277-8.6605zm5.6147-2.578-5.0276 8.6604 5.0276-2.9041zm-.3332-1.2483-5.6155 3.2437-12.1617-7.1594 5.6124-3.1807 6.212 3.6238v.0138l.0121-.0067zm-5.2815-4.5997 5.2691-2.9258-5.2691-3.0435zm-.6713-6.3575v6.7071l-12.16-7.0935v-6.6659zm-12.8313-7.4417v13.9014l-5.6148-3.182v-13.9757zm.6713-.387 12.4945 7.2463 5.6213-3.3049-18.1158-10.5065zm-.6713-6.5611v6.1718l-5.2845-3.0648zm19.1173 11.0874-5.2834 3.1063 5.2834 3.0519zm-18.446 3.6935v6.0686l5.2767-2.9904z" fill="#000" fill-rule="evenodd"/></svg>